<svg viewBox="0 0 28 28" fill="none" xmlns="http://www.w3.org/2000/svg">
<path fill-rule="evenodd" clip-rule="evenodd" d="M19.7142 10.6667H18.7618V8.7619C18.7618 6.13333 16.6285 4 13.9999 4C11.3713 4 9.238 6.13333 9.238 8.7619V10.6667H11.1428V8.7619C11.1428 7.18095 12.419 5.90476 13.9999 5.90476C15.5809 5.90476 16.857 7.18095 16.857 8.7619V10.6667H8.28562C7.238 10.6667 6.38086 11.5238 6.38086 12.5714V22.0952C6.38086 23.1429 7.238 24 8.28562 24H19.7142C20.7618 24 21.619 23.1429 21.619 22.0952V12.5714C21.619 11.5238 20.7618 10.6667 19.7142 10.6667ZM19.7143 22.0952H8.28575V12.5714H19.7143V22.0952ZM15.9047 17.3333C15.9047 18.381 15.0475 19.2381 13.9999 19.2381C12.9523 19.2381 12.0951 18.381 12.0951 17.3333C12.0951 16.2857 12.9523 15.4286 13.9999 15.4286C15.0475 15.4286 15.9047 16.2857 15.9047 17.3333Z" fill="currentColor"/>
</svg>
